<?xml version="1.0" encoding="UTF-8" standalone="no"?>
<svg width="16px" height="16px" viewBox="0 0 16 16" version="1.1" xmlns="http://www.w3.org/2000/svg" xmlns:xlink="http://www.w3.org/1999/xlink">
    <!-- Generator: Sketch 3.6.1 (26313) - http://www.bohemiancoding.com/sketch -->
    <title>icon-linkedin</title>
    <desc>Created with Sketch.</desc>
    <defs></defs>
    <g id="Page-1" stroke="none" stroke-width="1" fill="none" fill-rule="evenodd">
        <g id="icon-linkedin">
            <rect id="Rectangle-path" fill="#FFFFFF" x="0" y="0" width="15.937804" height="16"></rect>
            <path d="M2.72701848,6.17669677 L4.97568093,6.17669677 L4.97568093,13.4290161 L2.72701848,13.4290161 L2.72701848,6.17669677 L2.72701848,6.17669677 Z M3.85217048,2.57141113 C4.57110287,2.57141113 5.15412209,3.1574707 5.15412209,3.87808227 C5.15412209,4.59939575 4.57110287,5.18533325 3.85217048,5.18533325 C3.13056299,5.18533325 2.54897252,4.59939575 2.54897252,3.87808227 C2.54897252,3.15747071 3.13056299,2.57141113 3.85217048,2.57141113 L3.85217048,2.57141113 Z" id="Shape" fill="#FFFFFF"></path>
            <path d="M6.3854572,6.17669677 L8.53891051,6.17669677 L8.53891051,7.16790771 L8.56949173,7.16790771 C8.86898103,6.59732056 9.60232247,5.99642944 10.6952821,5.99642944 C12.9683244,5.99642944 13.3888619,7.49777222 13.3888619,9.45098877 L13.3888619,13.4290161 L11.1442729,13.4290161 L11.1442729,9.90301514 C11.1442729,9.06121826 11.1277359,7.97921753 9.9765929,7.97921753 C8.807393,7.97921753 8.62919504,8.89532471 8.62919504,9.84075928 L8.62919504,13.4290161 L6.3854572,13.4290161 L6.3854572,6.17669677 L6.3854572,6.17669677 Z" id="Shape" fill="#FFFFFF"></path>
        </g>
    </g>
</svg>
